<svg version="1.1" xmlns="http://www.w3.org/2000/svg" viewBox="0 0 819.98828125 410.1796875">
  <!-- svg-source:excalidraw -->
  <g transform="translate(10 10) rotate(0 399.994140625 195.08984375)">
    <path
      d="M0.7458139941096307 -0.41269033402204514 C256.2557662850428 -1.1910640520451414, 511.86030323173765 -2.3899858755467283, 799.4314825102687 -0.4319655701518059 M0.2493783809244633 0.1438256047666073 C219.19887995283864 -0.08637197087492689, 437.9916287476532 0.16860995222840566, 800.2260955907404 0.3360418818891049 M800.9695637204767 -1.007703708802275 C798.4155418118772 143.96881013695523, 800.221031795668 287.3647102862465, 800.7427317895624 390.5110679291655 M799.6555018899979 -0.09276776429162005 C800.9525629147172 84.38192897378819, 801.0159203115159 168.80645782453985, 799.4830247236644 390.5976440165681 M800.1424706980586 389.8585347369314 C493.23680408702273 392.48867774181986, 186.93968697549857 392.32842474156047, -0.6482676461338998 390.4521409705282 M800.2069071151316 389.8688232682646 C599.7162966807671 390.078116491217, 399.709607297428 389.7906438855117, 0.22048498168587685 390.0102384589613 M0.34131235260393045 390.58289835683274 C-0.5343407552865631 300.91868260175164, -1.2421755280544633 210.20232336770843, 1.105179719567487 0.5679192046820611 M-0.4454443763898992 389.6946445269177 C-0.7557430397673585 277.38204419628244, -1.4464506765490364 165.83333076124782, -0.04035424657742499 0.38766801736762135"
      stroke="#00aec7" stroke-width="1" fill="none"></path>
  </g>
  <g transform="translate(45.26171875 38.13671875) rotate(0 362.46484375 163.7578125)">
    <path
      d="M0.15464617758989335 -0.6743615582585335 C287.88751207963367 1.2196602582723717, 575.2251341462281 2.364325642564974, 725.509005279839 -0.5514493897557259 M-0.10717091336846352 0.35284079089760784 C234.35729050633236 -1.6201838387629832, 468.85988898047657 -1.4346647395274486, 725.0230695031584 -0.3573255442082882 M724.1829875732797 -0.5722646159706202 C725.0989782961433 127.14121386230606, 724.3481826492474 252.827987261396, 724.7114568898146 327.49781431352903 M725.4329578853561 -0.4452223476563557 C725.9625584495568 120.0833440778886, 724.9158142080563 240.50602693014565, 725.3551579041244 327.71025356686863 M724.8713088706136 327.12080588787796 C455.68636087765185 329.1692251591629, 188.23126670549092 327.87722367333834, 0.557787723839283 327.6868424460292 M724.8586577437818 327.638262591511 C576.3995674544319 328.7884732635661, 428.3559091414005 328.63224279004777, 0.36363418325781827 327.7012850381434 M-1.0515993496281473 328.41495242469847 C-1.7323857045794673 197.72894077742103, 0.44074458543133865 67.03269937794506, -1.208898425156184 -0.09686656416604418 M0.41323091437632264 328.0884663094721 C0.13887838499328486 260.8394551643245, 0.305252686125316 193.03083251858868, -0.36193607311312764 -0.6458631062857482"
      stroke="#00aec7" stroke-width="1" fill="none"></path>
  </g>
  <g transform="translate(87.42578125 68.22265625) rotate(0 319.3359375 131.99609375)">
    <path
      d="M-0.4131302312016487 0.19060966521501543 C194.80688888928566 0.9055894098040881, 391.47510594678465 1.3476496419665636, 638.6609690710902 -0.040094403922557836 M0.39835656657814983 0.2698252938687801 C239.6804710642464 0.9196765347121982, 479.20324489419005 0.8748461409209994, 638.3797597505152 0.10479212030768395 M638.0178428718511 -0.14759453674403955 C639.2747933472584 80.38143967522859, 641.0679003915263 162.50517457735543, 639.6534333257163 265.03887848489006 M638.7602041907257 0.480634765937331 C639.1141985881723 85.9613766528105, 638.83665050423 171.36193970642918, 638.6892535588885 263.54869606331073 M638.559850935638 264.47857667952775 C403.8749940354872 264.1375539078581, 169.30854991609812 264.58879077576273, -0.33054255992174153 263.5722775176167 M638.427244553715 264.235914876312 C501.1032435704925 264.1152111853735, 362.9324507476704 264.8098598565237, -0.08779238685965539 263.76588139757513 M0.9696174271560425 262.99752312433003 C-0.6413347728644155 186.10729709042585, -1.583849807961486 107.0561297696304, -0.7364256994810701 -1.288825075738162 M0.2150230086799608 263.675962077889 C0.316277432367741 208.2307841745914, 0.2724976525039313 150.1998907232722, 0.14813057063367513 -0.5019873231178519"
      stroke="#00aec7" stroke-width="1" fill="none"></path>
  </g>
  <g transform="translate(129.0625 102.09375) rotate(0 275.103515625 97.27539062500003)">
    <path
      d="M0.5014539286494255 -0.7174101635813713 C129.72205084677626 -1.179927439868945, 258.4000253894148 -0.4142404987220943, 550.2252785727381 -0.7834841057658196 M-0.3960982941091061 -0.06075494065880776 C140.31374682225217 -1.0303997369566642, 280.4049739271388 -0.7973462196150504, 550.3073660470545 0.06098861917853356 M550.4165413491428 1.2619957216084003 C551.8520781048904 58.978978768416724, 550.0696490058075 116.816006523477, 551.1157628409564 195.9334083087743 M550.9312736038119 -0.09733914770185947 C548.0808807437036 65.80128350712405, 549.3269603674028 131.36812477462087, 550.6218440178782 193.97789949737495 M549.8808193728328 195.17725851088767 C362.4494381913093 191.90068173913153, 174.08314947804757 192.97359219102057, -0.7805519059300423 194.9297301009298 M549.9933670856059 194.36790178045635 C423.88569313571855 196.3175314753121, 297.30320000248173 196.34416562009514, 0.24589911475777626 194.74694972261793 M1.8473386876285076 195.4365717656911 C0.5154750344245256 152.83903598533294, -0.72605288057639 113.78366405385171, -0.697923768311739 -1.4782201759517193 M0.28001716174185276 195.25919569097465 C-0.6534962749999977 128.84069934093355, -1.4901841378730751 60.60397140825083, 0.3433788660913706 -0.7587549034506083"
      stroke="#00aec7" stroke-width="1" fill="none"></path>
  </g>
  <g transform="translate(171.94140625 131.1875) rotate(0 232.126953125 62.44921875)">
    <path
      d="M0.24893649117694458 -0.8383195602058781 C123.3328245918786 -0.23841817242605745, 246.0346846165431 -0.18474414495448732, 463.3686884545484 -0.9126085002664103 M-0.38472334132897834 -0.11739291924199159 C155.29030945423375 -0.02141435745743231, 310.0307758814399 -0.511143508654428, 464.3724798793056 -0.05851715024434465 M463.755747128278 1.3610353581607342 C463.5756589520523 49.776407123579695, 466.0049519885132 99.07899736434045, 462.57328932359815 123.83878315612672 M463.83878094516695 -0.513589596375823 C463.6658529896977 46.84683007154236, 464.1418278475049 92.99877844124276, 463.6044130381197 125.21160682477056 M464.4533966847478 124.89252881933037 C278.3976874338492 125.18864534044695, 94.01352258195958 124.87934370176873, -0.7214079790239271 125.74328354850843 M464.4483759391779 125.1603504379004 C300.7153305569145 126.05296097705282, 137.47916147197884 126.30394093153309, 0.061815132540835274 124.68246500678507 M-1.6954473964869976 123.95716167613863 C0.6959095726082158 81.53063572129321, -0.9075198640754389 33.26842785116459, -1.733885120600462 -0.3686565048992634 M0.2992777284234762 125.33366622962056 C1.813872022662399 83.10403377158946, 1.455439074073074 42.084020835653064, -0.24690734781324863 -0.46458629332482815"
      stroke="#00aec7" stroke-width="1" fill="none"></path>
  </g>
  <g transform="translate(215.78125 161.890625) rotate(0 189.880859375 31.189453125)">
    <path
      d="M1.0920189114738448 -0.03779197728035813 C123.11026213384814 1.6436746656176195, 244.7024357581412 2.7013440779031175, 378.67705027963217 -0.5545883694184244 M-0.19416179010375423 0.2362040329279022 C118.54823292661249 1.0394086116869687, 237.31768453422356 0.8637923468237787, 379.73516538298423 0.5839698949300333 M378.07581485435367 -0.2669467441737652 C377.5593498686913 17.94707064259346, 380.4210133294228 41.15967277667514, 378.3830952756107 62.84517400339245 M380.643820727244 -0.05545645393431187 C379.0910105023985 16.50432022907989, 379.5548082504873 32.73738144273374, 378.8684048894793 63.22554505430161 M379.2619486451538 62.32674148028658 C262.9812888105771 60.432828501525826, 144.93066700098015 60.950092941577616, -0.015554427788394868 63.185775795141225 M379.37289719235275 62.82733200974407 C256.91465092255766 63.58230315281137, 134.36393441601064 64.41959181130402, 0.1699730099597881 62.80168323455663 M-0.9870477803051472 60.5955031402409 C1.108800517155105 48.03713945663985, -2.1212031974063574 33.282292160978244, 0.4280436150729656 -1.906656812876463 M0.3065939787775278 61.97685582004487 C0.4035477274902951 44.79780900086989, 0.01297154369436615 27.301690267022053, 0.46415009535849094 0.9892530497163534"
      stroke="#00aec7" stroke-width="1" fill="none"></path>
  </g>
  <g transform="translate(377.7578125 196.5234375) rotate(0 26.5 11.5)"><text x="26.5" y="18"
      font-family="Inconsolata, Segoe UI Emoji" font-size="19.391276041666668px" fill="#00aec7" text-anchor="middle"
      style="white-space: pre;" direction="ltr">Kernel</text></g>
  <g transform="translate(391.703125 232.359375) rotate(0 13 11.5)"><text x="13" y="18"
      font-family="Inconsolata, Segoe UI Emoji" font-size="20px" fill="#00aec7" text-anchor="middle"
      style="white-space: pre;" direction="ltr">OS</text></g>
  <g transform="translate(329.80078125 268.34375) rotate(0 77.5 11.5)"><text x="77.5" y="18"
      font-family="Inconsolata, Segoe UI Emoji" font-size="20px" fill="#00aec7" text-anchor="middle"
      style="white-space: pre;" direction="ltr">Code (Application)</text></g>
  <g transform="translate(365.2734375 306.26953125) rotate(0 39.5 11.5)"><text x="39.5" y="18"
      font-family="Inconsolata, Segoe UI Emoji" font-size="20px" fill="#00aec7" text-anchor="middle"
      style="white-space: pre;" direction="ltr">Container</text></g>
  <g transform="translate(378.57421875 340.140625) rotate(0 29 11.5)"><text x="29" y="18"
      font-family="Inconsolata, Segoe UI Emoji" font-size="20px" fill="#00aec7" text-anchor="middle"
      style="white-space: pre;" direction="ltr">Cluster</text></g>
  <g transform="translate(261.42578125 374.82421875) rotate(0 146.5 11.5)"><text x="146.5" y="18"
      font-family="Inconsolata, Segoe UI Emoji" font-size="20px" fill="#00aec7" text-anchor="middle"
      style="white-space: pre;" direction="ltr">Cloud/Co-Lo/Corporate Data Center</text></g>
</svg>