<svg version="1.1" xmlns="http://www.w3.org/2000/svg" viewBox="0 0 899.2223937511444 564.37109375">
  <!-- svg-source:excalidraw -->
  <g>
    <g transform="translate(63.619107745587826 283.95703125) rotate(0 384.7705010019243 -0.751995488256199)">
      <path
        d="M-0.930895672738552 -0.06501876264810558 C127.51928663626313 -0.38340073401729075, 642.0546697743237 -1.178422578920911, 770.4718976765871 -1.438972213864315 M0.7812453697342425 -1.1447575583774596 C129.1529005241115 -1.3274204071580102, 641.8954946467002 -0.16100809784915576, 769.880489024939 -0.0659959187824164"
        stroke="#ffffff" stroke-width="1" fill="none"></path>
    </g>
  </g>
  <g transform="translate(14.681607745587826 10) rotate(0 106.3203125 106.3203125)">
    <path
      d="M106.18268654495478 -0.537788487970829 L213.05252216011286 105.68781580775976 L106.55685637146235 213.65453185886145 L-1.7020158991217613 108.99053349345922"
      stroke="none" stroke-width="0" fill="#00aec7" fill-rule="evenodd"></path>
    <path
      d="M108.40226378291845 0.6750652566552162 C138.04877627234092 31.176465767097547, 172.52222292708467 66.79791474848695, 211.0891322121024 106.89163539558649 M106.58118294551969 -0.7180368192493916 C144.0377953356027 37.568710206833785, 182.9055344144418 75.96180042551191, 211.83163033798337 106.01866979524493 M212.63581838458776 106.97986743599176 C178.66694227581436 141.32183076885937, 144.81934956321902 174.6311735119723, 105.97444310039282 211.98352406173944 M213.48124562576413 106.59822626039386 C174.2104573557287 144.28717835433372, 137.0737870715052 182.83698607447033, 107.65050481632352 213.15861375257373 M108.09736218303442 211.41056225448847 C75.32470672154159 184.0544184063084, 46.871772111070456 154.1361512189894, 1.1773427948355675 106.51404950767756 M106.11503099277616 212.30167729780078 C82.07391568487219 187.43222573620383, 55.50457641510002 162.9167847893224, -0.027244698256254196 107.8711704723537 M-0.39498958736658096 108.45762822777033 C35.15150766242296 71.21580745767801, 68.72036046814175 38.93902694810181, 105.66438402980566 0.4815027490258217 M0.6223095543682575 106.50449891015887 C24.74471880670637 82.31996823374182, 50.23185899171978 56.102288726828995, 107.08268355205655 -0.782258678227663"
      stroke="#ffffff" stroke-width="1" fill="none"></path>
  </g>
  <g transform="translate(177.02926399558783 341.73046875) rotate(0 106.3203125 106.3203125)">
    <path
      d="M107.63350842148066 0.08501329272985458 L212.3172783628106 106.73447623103857 L105.90214846283197 214.24907436221838 L1.4591636434197426 106.28823151439428"
      stroke="none" stroke-width="0" fill="#00aec7" fill-rule="evenodd"></path>
    <path
      d="M105.68781580775976 -0.4431436285376549 C135.10130230720273 25.807791749236063, 163.45304123120616 56.279443434101424, 211.7068070396781 106.67323730140924 M106.00613306835294 -0.9506575353443623 C132.45444021205302 26.610301653904028, 156.40495454320452 51.114087759194085, 213.09662257507443 106.45894641801715 M214.17951860278845 106.93310020118952 C170.73445988995547 149.26203026702103, 133.70301200660353 189.61899771214058, 106.78678955882788 212.75941918045282 M212.1015845425427 106.97807807847857 C190.4671845352411 129.5412792323489, 168.69076260882022 151.21692257905787, 106.2441866286099 212.77337462827563 M106.12479653209448 213.69402573257685 C76.97026753277808 181.85202686813543, 43.71535104402631 150.45350832609228, -0.24630317836999893 105.69927690178156 M107.85702823475003 212.25054461881518 C71.50995189068547 177.53103642043772, 33.794000596606054 140.84676127081968, -0.6004787795245647 107.28883356973529 M1.9355148300528526 108.23636148124933 C36.57738909114152 73.41879527639597, 71.02463826488703 37.53363793004304, 106.16783156245947 -1.6026485189795494 M-0.13464034721255302 107.77579970285296 C24.83189407583326 81.91923224989324, 48.88000938329846 56.67353660490363, 107.80005310848355 -0.6364003904163837"
      stroke="#ffffff" stroke-width="1" fill="none"></path>
  </g>
  <g transform="translate(81.95504524558783 286.1484375) rotate(0 41 11.5)"><text x="41" y="18"
      font-family="Inconsolata, Segoe UI Emoji" font-size="20px" fill="#ffffff" text-anchor="middle"
      style="white-space: pre;" direction="ltr">May 2016</text></g>
  <g transform="translate(339.7753577455878 10.99609375) rotate(0 106.3203125 106.3203125)">
    <path
      d="M105.68836035579443 1.8427345529198647 L211.28022899478674 107.32443235069513 L107.67400040477514 211.3141639009118 L-1.6037140861153603 106.11734912544489"
      stroke="none" stroke-width="0" fill="#00aec7" fill-rule="evenodd"></path>
    <path
      d="M105.73503015190363 -1.359537459909916 C136.21936490158436 27.772957624879783, 161.23219104224583 55.295517643553325, 213.22304651886225 105.06913699954748 M107.73328299447894 0.30342649295926094 C135.02493162765285 27.467588192426483, 161.7053312746645 55.68842611891858, 211.67026503011584 106.75389372184873 M211.74053881317377 106.93967571109533 C178.79239631032047 141.07739950544726, 146.15206028232876 176.33209634276517, 108.6931319013238 213.81063380092382 M212.17337496206164 106.37341867759824 C173.8261809593398 146.73862573448045, 133.72927963957596 185.43755685465936, 106.25349588319659 212.1404027827084 M107.51232097297907 210.88631167262793 C79.56878465896182 182.88275936779684, 47.1031554445409 155.1842942901538, 1.8594224229454994 107.17977800220251 M107.69804258272052 211.8541355021298 C84.27676824431225 191.15089650818032, 64.11437579530582 169.84948665564647, 0.12625844404101372 107.62135230377316 M-0.7794573530554771 105.81411065906286 C24.339839835874738 82.72745500076562, 49.68881099451333 57.8929911358282, 107.74364659935236 0.5649973377585411 M-0.5922502763569355 106.48690997436643 C38.595305510200554 70.1566196071729, 75.27094620015471 32.39270110044629, 107.0569853298366 0.7388565428555012"
      stroke="#ffffff" stroke-width="1" fill="none"></path>
  </g>
  <g>
    <g transform="translate(119.18160774558783 279.55859375) rotate(0 0.24906870275731308 -28.832896258519042)">
      <path
        d="M-1.0772894963622093 -1.041278900206089 C-0.7288480704029401 -10.979242878655594, 1.0782504295309385 -49.143698403735954, 1.5754269018769265 -58.69223824888468 M0.5579947887081653 1.0264457318466156 C0.7607900338588903 -8.798312055837982, 0.33792983295706397 -47.559215621224915, 0.43114071798510833 -57.21062089082785"
        stroke="#ffffff" stroke-width="1" fill="none"></path>
    </g>
    <g transform="translate(119.18160774558783 279.55859375) rotate(0 0.24906870275731308 -28.832896258519042)">
      <path
        d="M8.765266025685333 -30.308505378905664 C7.52043357104878 -36.92407004948108, 5.531429565489495 -43.90392488183558, 1.1590721951145677 -55.23028837469406 M9.991682229810023 -29.971916076038013 C6.279155915603958 -38.31830390804747, 3.578787549395673 -47.45042700273305, 0.7404637419898061 -57.87892916006036"
        stroke="#ffffff" stroke-width="1" fill="none"></path>
    </g>
    <g transform="translate(119.18160774558783 279.55859375) rotate(0 0.24906870275731308 -28.832896258519042)">
      <path
        d="M-11.283365016449386 -30.27554815058481 C-7.3746558369954 -36.71960013619847, -4.209861266875293 -43.70792711390901, 1.1590721951145677 -55.23028837469406 M-10.056948812324697 -29.93895884771716 C-7.122714692328103 -38.2961882801676, -3.1760734190511153 -47.43923815653115, 0.7404637419898061 -57.87892916006036"
        stroke="#ffffff" stroke-width="1" fill="none"></path>
    </g>
  </g>
  <g>
    <g transform="translate(282.6409315066704 283.63671875) rotate(0 0.3350934389191025 28.542080346369346)">
      <path
        d="M-0.14751025289297104 0.33258260339498524 C0.26138756789590617 9.854241367924692, 1.922622438163842 46.982469929995545, 2.354278742839438 56.27890439032603 M-1.6840918650012464 -0.5384154751617463 C-1.3812441251673977 9.229785509185598, 1.0548796089620986 48.00836153265887, 1.6660287308607666 57.62257616790038"
        stroke="#ffffff" stroke-width="1" fill="none"></path>
    </g>
    <g transform="translate(282.6409315066704 283.63671875) rotate(0 0.3350934389191025 28.542080346369346)">
      <path
        d="M-9.116472767763849 32.47447227390208 C-7.162657835226822 40.212668021699365, -4.134771976776266 46.83673113865021, 0.890302866986808 56.55940110804539 M-8.911387873911377 32.12738342659273 C-7.624430741147156 39.49671124676949, -4.098354041647237 45.06838045895992, 1.4224852959726422 57.53743068324428"
        stroke="#ffffff" stroke-width="1" fill="none"></path>
    </g>
    <g transform="translate(282.6409315066704 283.63671875) rotate(0 0.3350934389191025 28.542080346369346)">
      <path
        d="M10.230862997376097 31.263806851671657 C6.531681017847335 39.33142056880215, 3.9151560861036074 46.308684408348874, 0.890302866986808 56.55940110804539 M10.435947891228569 30.916718004362306 C6.419477142840364 38.67312236675772, 4.647589947691684 44.57631328164342, 1.4224852959726422 57.53743068324428"
        stroke="#ffffff" stroke-width="1" fill="none"></path>
    </g>
  </g>
  <g>
    <g transform="translate(447.03331072421884 283.8203125) rotate(0 1.2009865006604628 -30.249564237524112)">
      <path
        d="M0.37224434763193126 -0.19309545904397973 C0.7763818730642242 -10.388081033405008, 2.878847778702698 -50.32625282494397, 3.2934391005217094 -60.30603301600422 M-0.8914660992007702 -1.3400745203811675 C-0.661057640319209 -11.460831565110105, 2.187224100616372 -49.49281772996345, 2.707169293125253 -59.09590585036072"
        stroke="#ffffff" stroke-width="1" fill="none"></path>
    </g>
    <g transform="translate(447.03331072421884 283.8203125) rotate(0 1.2009865006604628 -30.249564237524112)">
      <path
        d="M10.756910177179616 -29.27484730679421 C6.715838882336474 -40.64884153923845, 3.98882460880937 -53.00739995061127, 2.096420502920728 -60.5507578129867 M10.377607768633407 -30.581410240865036 C8.124575150223873 -40.42466237199221, 4.688388110406444 -50.456153493680105, 3.254283378531318 -59.351889214197726"
        stroke="#ffffff" stroke-width="1" fill="none"></path>
    </g>
    <g transform="translate(447.03331072421884 283.8203125) rotate(0 1.2009865006604628 -30.249564237524112)">
      <path
        d="M-9.632033492387514 -30.60181376173072 C-6.071025445519396 -41.54491350205466, -1.2055132136010833 -53.409330179347336, 2.096420502920728 -60.5507578129867 M-10.011335900933723 -31.908376695801547 C-5.292628857281385 -41.44549307650075, -1.7548673433932311 -51.02310115553581, 3.254283378531318 -59.351889214197726"
        stroke="#ffffff" stroke-width="1" fill="none"></path>
    </g>
  </g>
  <g transform="translate(243.30270149558783 256.23828125) rotate(0 37 11.5)"><text x="37" y="18"
      font-family="Inconsolata, Segoe UI Emoji" font-size="20px" fill="#ffffff" text-anchor="middle"
      style="white-space: pre;" direction="ltr">Oct 2018</text></g>
  <g transform="translate(405.4628577455878 285.88671875) rotate(0 41 11.5)"><text x="41" y="18"
      font-family="Inconsolata, Segoe UI Emoji" font-size="20px" fill="#ffffff" text-anchor="middle"
      style="white-space: pre;" direction="ltr">May 2019</text></g>
  <g transform="translate(503.0800452455878 337.59375) rotate(0 106.3203125 106.3203125)">
    <path
      d="M108.25008986145258 -0.912297822535038 L211.11243341118097 107.66381611675024 L106.06777165085077 213.0459832176566 L-0.9534754976630211 105.78425230830908"
      stroke="none" stroke-width="0" fill="#00aec7" fill-rule="evenodd"></path>
    <path
      d="M107.48416008800268 -1.108392022550106 C145.88036655399134 37.3303401332692, 181.02890477450796 74.8197576977656, 211.8211902603507 108.0656823888421 M106.5476772673428 -0.0706280954182148 C148.52464221659 41.079031067689066, 187.63252101117513 81.72270700929046, 213.23903499916196 106.84906954690814 M210.83406295627356 106.44358728080988 C178.7205994600203 141.1782471063867, 139.0684966297302 179.69517613906936, 106.85654082149267 211.7226192727685 M212.35965858772397 106.47031302377582 C186.1039199683949 132.3037368148897, 160.58011307692678 157.99422118133342, 107.19907616451383 212.24616224691272 M106.72299017757177 213.09948656708002 C66.92757731651247 171.82426800598273, 23.84901268494606 130.4029639489739, -1.8388596549630165 107.40559528023005 M106.15218876674771 211.94458467885852 C82.53175271207175 187.92127242420918, 59.01372743861458 164.54971731147032, -0.03599299117922783 107.58232278749347 M0.984681986272335 106.58415935188532 C23.1814482556656 82.38700429271907, 50.15813704561442 56.58983897078783, 106.21716656535864 -0.15272357314825058 M-0.06777418777346611 107.4721819870174 C32.79056176181883 74.88389620605855, 64.31801926765593 42.76225191738455, 106.4353167898953 0.17676503583788872"
      stroke="#ffffff" stroke-width="1" fill="none"></path>
  </g>
  <g>
    <g transform="translate(609.1464514955878 282.0703125) rotate(0 0.519092833902846 28.29903390790335)">
      <path
        d="M-0.5148273602128028 0.7684951677918435 C-0.47163543452819184 10.036200306316216, -0.8814243132869403 46.118275409440194, -0.707255519926548 54.97036012560129 M1.4157495463360101 0.1263511855434627 C1.9281271941928815 9.648051301244026, 1.8348653032847992 47.39435694386872, 1.6005773684848101 56.47171663026325"
        stroke="#ffffff" stroke-width="1" fill="none"></path>
    </g>
    <g transform="translate(609.1464514955878 282.0703125) rotate(0 0.519092833902846 28.29903390790335)">
      <path
        d="M-6.241993341820301 29.225562490011566 C-5.7726237861482375 37.02515333182502, -5.5859422925581885 42.16424194588249, 2.148730672048405 56.37983294854872 M-7.584075756596388 29.565318833525293 C-4.283491242471041 38.50951797360373, -1.6678568814856272 48.73710339874023, 1.2411149768996985 56.86261242534034"
        stroke="#ffffff" stroke-width="1" fill="none"></path>
    </g>
    <g transform="translate(609.1464514955878 282.0703125) rotate(0 0.519092833902846 28.29903390790335)">
      <path
        d="M12.581317289458827 29.43539811860691 C8.920720604391478 37.10818086380694, 4.976323954498754 42.20121767560739, 2.148730672048405 56.37983294854872 M11.23923487468274 29.775154462120636 C8.25078935571651 38.624282041512295, 4.57680274218456 48.781752990153834, 1.2411149768996985 56.86261242534034"
        stroke="#ffffff" stroke-width="1" fill="none"></path>
    </g>
  </g>
  <g transform="translate(571.0917639955878 256.31640625) rotate(0 36 11.5)"><text x="36" y="18"
      font-family="Inconsolata, Segoe UI Emoji" font-size="20px" fill="#ffffff" text-anchor="middle"
      style="white-space: pre;" direction="ltr">Jan 2020</text></g>
  <g transform="translate(662.5448889955878 10.3359375) rotate(0 106.3203125 106.3203125)">
    <path
      d="M-0.16143967055707975 107.18571509668104 C-0.16143967055707975 107.18571509668104, -0.16143967055707975 107.18571509668104, -0.16143967055707975 107.18571509668104 M-0.16143967055707975 107.18571509668104 C-0.16143967055707975 107.18571509668104, -0.16143967055707975 107.18571509668104, -0.16143967055707975 107.18571509668104 M2.180869622812402 109.0772637169942 C10.993338044156076 99.87015261573652, 19.638871779391874 91.35594204901932, 40.82208555357637 68.54587270754388 M1.9711363415278313 109.04204282948223 C16.19143660782236 95.3372285560374, 29.400224141807865 79.77845420656872, 40.816521903296135 65.9829100302141 M4.154415804650142 114.40465558895293 C30.618519765056888 82.54169768861567, 54.247130388888905 54.3740019840318, 81.10403631285962 26.82493955402324 M6.17405299818094 112.31162451410118 C33.22779404457836 80.34504276715137, 60.76457917638218 47.7963142523608, 82.29057735980686 26.347816744285318 M7.783632388649721 113.9781281959196 C38.978968626784955 78.18875991201878, 73.12115009403279 41.318536817435145, 108.14307997487907 -0.9023300391862605 M8.250653820423622 115.56966135389408 C41.37526563556088 76.59136517096766, 75.93085205771278 36.80100714331961, 108.91588694341903 1.2628483528961922 M10.550315167167156 116.80217839307363 C44.97264315190682 80.4361831794734, 80.13159492461394 40.34229621288107, 109.3850053681426 4.35797656665919 M10.656733624049394 117.72751055560286 C35.282967792042 90.96234721829737, 58.676334330347714 64.0141235164945, 110.483332256078 3.6951840963530316 M15.99152034558692 121.49699427626284 C36.406643359681375 98.34327294987882, 58.25189398757417 72.50139753077636, 114.85199027068346 5.465855499164803 M13.43069138788023 121.72237681663783 C38.72470518240078 95.00999939512262, 61.23418920303923 68.13415038667392, 114.26252759925454 5.51324295382355 M16.073800658284043 125.5296168611122 C49.115424775489515 88.82834155350358, 79.87276206892942 50.98452064943352, 115.81546588788618 11.057119854178339 M16.94276636972866 123.37347400418648 C53.48562082146161 81.92798550430645, 90.8997321454706 38.25837169688879, 116.04968445177067 9.021417122718006 M21.631087310643004 126.97335924346947 C49.66163527821304 93.92717471425888, 80.12421962298333 56.1973098201904, 118.78847801210674 13.605016486879258 M18.70792004841666 126.76644431565904 C52.099981146245085 90.66094123497331, 83.79690626019723 52.613234956893024, 118.53497262941988 12.646688809778361 M20.7389260950198 129.73896827851416 C42.478351140107236 106.175381511975, 62.95309767060695 83.33271597505842, 121.33933284872961 14.19848349311534 M22.13507223973773 129.10951995779754 C58.749989789932386 88.43859582972604, 93.79403543659645 46.633619289590484, 121.49116611102414 15.341887712414895 M26.528123216798953 132.35288206209398 C61.47704004097292 93.67545605457326, 95.7789306953835 51.93181615524826, 125.80977410313935 16.528021468734337 M24.715746922513894 133.1367806280122 C61.6992862765141 88.91585883716607, 98.18813412099814 48.70086936101973, 123.8668201254055 18.19656227803786 M27.55898141035545 133.18839160983396 C53.53983928288711 107.4737644516398, 78.54628898751406 81.51037236750716, 129.03316006769194 20.871564768915732 M28.773308354557635 133.9643151934905 C67.61389499695062 90.02991301557502, 108.31785755098248 44.942611642987, 127.87944823835744 20.047850963389237 M30.259181881073786 140.22506001758188 C65.09929392580223 98.80626922276107, 101.73988691385526 58.387775051788196, 130.14810944777187 24.872738989507283 M30.27584301469095 138.4746408516428 C62.856507317405004 103.93713212854232, 92.88356132343965 67.45549173657317, 131.20416817870196 23.883739715879287 M33.29802042130996 140.27988414051717 C64.06647001895506 102.64776997676893, 94.57005046309901 67.70580797381092, 132.31667844876364 25.526732226356742 M33.58539571870733 140.17286480921095 C65.65666935479402 106.90847343673514, 94.28565531824543 73.28574622111846, 133.06687892526105 26.45393323291826 M35.400053236448485 143.7855520744876 C75.00342217657727 96.92588201424255, 114.22195267507885 53.20200168871338, 136.44253786302326 29.166166334643606 M37.64661544542881 143.58994176360528 C69.58736117071646 105.7288142973554, 101.20310518753014 68.58302709116779, 136.33743779382823 29.880726221248153 M41.71933306086436 146.02160483511824 C62.296382962585994 123.57856720446334, 81.10562195029866 100.22300322031745, 140.98461889593523 32.23935441021561 M40.73599145266786 147.13883558201331 C69.24441731246631 111.58229005713274, 98.83042669398583 77.4384298528262, 139.7183062632255 32.062260878279204 M42.27729109994206 148.8738555182568 C67.0955529416187 121.7712688309899, 93.02872894463692 94.47173328060222, 140.33134928187454 34.5414624686978 M43.27473521924648 150.49893846184528 C65.83287679516438 122.90061273477083, 88.19512603092033 98.03478924143565, 142.49378609126532 35.528688571198956 M46.33697314603762 154.0655509790827 C83.35106419421825 110.2179211629057, 122.74158073819919 63.64403166238567, 143.23853522622568 36.97392860593789 M44.57801656095819 151.47223260984313 C69.58602634256309 124.79575925238021, 94.39737015409838 96.58644919503286, 145.34290125676972 38.82658899741762 M50.216685404535525 155.93562931344377 C84.83199335491722 111.05702430040583, 123.440495423706 68.43206475648745, 147.20359752134468 42.77562467711538 M49.04360945662498 154.38654772341715 C69.55097353711817 130.96436012132583, 89.00998665485531 106.55157073829746, 147.0886340755322 41.375131863677204 M51.66423060981076 158.66988153696502 C92.40089252698513 112.98325612457819, 131.09950768294235 65.71842955095448, 150.27921737261602 42.301113778078026 M50.90112816405933 156.95172266975487 C73.51318965420325 131.34719154288234, 96.72493971234377 105.04050422772002, 150.88657102637478 43.86933436738796 M52.294789967247844 162.06037074549417 C82.26098847972877 125.66796708662187, 115.51399109025297 87.80920420337074, 152.7915134854242 47.006521504673586 M53.02490916208327 161.6440246462665 C85.66293702992517 125.83056223085879, 114.89483243874702 90.67562226233987, 152.31807983811942 45.89093245596014 M55.96515926920278 162.7365937942107 C83.82832307111126 131.28713045384754, 106.68804950071521 104.34706542103375, 155.05821915212522 51.43540721208154 M57.68324726649029 162.56231085969404 C88.97739715013728 126.88131409344908, 120.52885320194366 89.82094007626871, 155.48348657655964 49.51925208613574 M60.58739472106006 166.94373877896243 C84.18330484417791 135.31701122962835, 112.89841471275777 105.2669016936905, 157.2023280781036 53.99702149614964 M60.72704145610239 165.83128600744777 C98.77141070612754 123.76435268391623, 136.231169615003 80.63970167658981, 159.19072147051745 51.73446670532499 M64.50304905719466 167.77384671537428 C92.75562330224705 136.48960505306732, 118.431762911476 105.54060198730365, 160.8702714687438 54.952177452725685 M62.339030988732056 168.45766395671515 C87.07208240293922 141.67160953521824, 109.73880186974631 114.20799606513496, 161.04849599881481 56.028468510938204 M64.92105348299113 170.92523069929405 C100.77386674958277 132.99798294715725, 133.0151728475135 90.09633620296663, 162.95009511640183 58.39912193698911 M65.8466773432013 171.71458690490647 C95.30595693608814 137.7028934144469, 123.23276082880967 105.04171828046819, 163.55947997724525 58.015739709717316 M68.29195379080544 175.93363758590124 C92.64168343241813 144.05965327214315, 118.94554055332631 113.68050271074416, 167.38510522646226 61.05179304478768 M68.47140033530364 173.99778705876372 C99.80542385008543 139.79958788928155, 131.13352510387034 102.04267309635026, 168.3089473846308 59.836609999072586 M70.12155618602208 176.95050547104356 C101.20494074163173 141.9621868591928, 136.48945216027457 102.42047454198865, 170.89204550430946 62.22569137196919 M71.51722394386104 177.22884411569711 C102.92044566063421 140.09366543258824, 134.60588523704544 102.51625666100084, 170.0579534497934 63.768127826414315 M73.34516340301607 179.97412537034603 C98.87164952146597 152.67018058514222, 121.35233307064192 121.77329776640714, 172.67927424229956 65.82375127371309 M75.12001242668603 179.71134694289418 C103.25037051323108 145.85803581544988, 132.8211046815653 111.2446296908464, 172.83651173852658 65.83493164848444 M74.7654566471719 184.60906037965646 C103.17221225023152 150.36854343885216, 129.19834907169295 122.22155108991251, 174.260410145817 69.11459834586712 M77.06035226260059 183.5153127377652 C116.72539325857838 138.8765932191889, 155.60586435189066 93.64768659886485, 176.13223997965235 70.21250741269323 M79.42673171084559 185.29730735415427 C101.98329097373053 162.7483709458335, 123.56638992273597 136.4991362048175, 177.82856844923677 71.96371110405633 M79.51278826739824 185.33334870705215 C113.90383399438278 146.06214264869618, 148.2433659946439 105.99387058218878, 179.6395961809832 72.0833502362282 M84.42854479942162 188.09655438968718 C113.73518110111098 154.52104093893266, 144.92820369553107 118.09721293027496, 180.69424285794338 74.59284014412844 M83.23446941990096 188.8839095481652 C106.13043721774747 163.29397945616336, 128.38915682115558 136.6375840025641, 182.07276057134112 75.0213835664996 M85.29994864727496 191.9113425018803 C125.21716978476829 148.11700173720146, 162.64130367130787 103.52198800176342, 185.65954166429282 78.81116982126298 M86.31438497792124 191.767459128292 C111.53057348806709 160.89201870189757, 136.83211090769566 131.9193435208982, 183.9148717165196 77.84812086024942 M86.43737445979016 194.25248478658136 C117.2918332595928 165.004762193077, 140.9088608884084 131.31644386072395, 188.83183357366963 80.79357573130764 M88.9862464202811 194.8508896448427 C122.91975683159048 152.60099135057385, 160.0615639083873 110.7089472212262, 187.60667234534068 81.0359230648879 M91.47886802932322 196.46822809896977 C116.17568746956027 168.58845478352941, 142.27831281682373 138.6924334044105, 189.34192479145827 85.06649597011025 M90.37772356277407 197.1236833045593 C113.66208419941964 172.48141112086267, 134.58369875163643 149.0703713898841, 189.63968643662633 84.31886987782534 M95.11773556125863 200.52251053489334 C121.56271743335705 169.99768374323915, 147.93792268362745 138.54947886859782, 191.0622361100148 86.49380239285023 M94.6990903842221 200.10116980485208 C131.1094683177494 158.41618573387518, 167.38984723739088 116.84110153644511, 192.6493963061701 86.30363100580365 M97.47677978997137 202.22612310997707 C125.66067864764315 172.7102970340845, 147.53534342795652 143.48365419702247, 194.4204487347236 91.05505809537536 M97.99246114243772 202.68068801290852 C122.14163355199321 173.67038723067196, 147.05026434718866 143.77890333386216, 195.6038884327939 88.87272364623314 M98.54618192084597 204.99612892006877 C125.37682349193872 175.540284005321, 153.49914971878994 142.31851940052553, 198.1176813709693 93.83138867353344 M98.94467231624292 206.52600512613895 C122.59536608649387 180.05638998940125, 143.93017753044782 156.34964398525005, 197.8970305453198 92.7953837465241 M104.5577377462384 209.08702482034778 C126.04998974148678 179.37156892493877, 150.13812729074638 152.27349759979947, 200.84666731110784 96.99135348250388 M101.63651872143119 208.9234783512852 C124.73267799929741 182.45111267943184, 146.09737466383493 157.78324369032356, 201.44164870954128 95.33843726341843 M103.79850347153318 212.368998906662 C139.88637693304332 171.02013337769455, 176.670701728662 128.12834214713595, 205.1054002605237 98.56920311813448 M105.73139933682454 211.1853123857577 C138.06266350867483 175.454792460177, 168.27749135786007 138.86495549377238, 204.85817315428034 98.66955764432643 M108.98503183110527 215.55909219463638 C145.77070394963224 171.4604131270711, 181.53912325284168 131.59960265220028, 207.5713704535919 101.69604109605027 M109.22455342023544 213.50572109674386 C146.66018682770513 170.4583485107681, 182.26081726238746 127.05909668453604, 206.22387438734944 100.71342750643564 M149.75267771178866 172.20746212719786 C165.39651005864044 152.3899034033061, 183.86763171864055 132.15264582865024, 209.53944659569694 104.35924301209894 M149.30736613193537 172.57219102873313 C166.27646638369788 152.6390783204187, 185.30408588478525 133.1171725148389, 209.88574513757064 104.53615779715625 M188.21950419549938 134.00272079266952 C194.99519352059147 126.87644451797631, 203.36816760500966 117.34054508350798, 211.29611197919485 104.63361822146001 M190.30627457727786 132.4958196216111 C197.8014294138475 122.53603185361304, 206.3677355188452 112.1382445388902, 213.20973647073743 107.20144947323027 M106.80473622027108 212.4708847859058 C106.80473622027108 212.4708847859058, 106.80473622027108 212.4708847859058, 106.80473622027108 212.4708847859058 M106.80473622027108 212.4708847859058 C106.80473622027108 212.4708847859058, 106.80473622027108 212.4708847859058, 106.80473622027108 212.4708847859058 M111.04858217016901 211.70825248054936 C97.1798576525579 199.901272462958, 82.51298791016578 186.1916200292254, 63.12591673755651 168.25078072600223 M110.19547671080674 209.45462360448911 C92.50098029881481 194.90125413263672, 75.47513261098621 180.6239053453329, 62.49937699684506 168.55095684357144 M110.8879250118238 207.10617007434638 C75.77410873490925 175.06491974152607, 37.37127813024652 142.9018734788646, 18.669433405547743 125.4190073864637 M113.616328546564 207.873195519003 C91.5200465063222 189.04806208347674, 72.46381826936982 172.0007165681328, 17.60605777978838 123.21417635624391 M114.21453439400591 204.34726546355355 C69.61587183265361 166.811085741444, 26.62652453142826 128.20168225831378, -0.08901014787056738 105.3919581135901 M114.59829564721383 204.88671906315554 C68.88519589325543 163.70487620762455, 25.002240966108616 125.69718627003806, 2.3756182766248912 105.47063693387233 M117.15902555109038 200.35951716379589 C85.29232509506093 173.3811383571674, 51.338060352550585 144.47499167146367, 3.8714951083349973 101.42078848814886 M118.36708602056875 200.64643935413426 C85.1474913193318 172.30298721024351, 49.581656301440944 142.22932877169075, 4.670154041825512 101.48616700878661 M122.38016079767499 198.3285252196889 C89.23648212867984 172.55404019562584, 54.429023794251876 141.50517835425376, 9.057619063415672 101.35974435898325 M121.57889850466404 198.5963792881172 C93.82369513893846 172.9562235644929, 64.74580169032456 148.11076531113721, 8.114865238078977 99.68984153139255 M123.79601120768913 197.32327508887656 C97.84789966295203 175.85032803294507, 74.68867441561872 151.59619974797334, 9.098370291300917 94.94187368373731 M123.4265844468666 194.72410342431075 C87.96109769602896 164.4699247610841, 52.05684007334237 132.694804298372, 10.109634462752247 95.67469381089667 M126.86221409573062 192.48249181597436 C88.2618426413344 158.89164582370213, 49.87978373130909 125.29746827365163, 10.910323606588506 94.21996400702653 M126.29290518521174 193.372072158893 C96.2191463248488 166.024791653039, 65.69437281410246 139.70018640638602, 12.369254303880595 94.26365299347697 M129.30313469617448 188.6404039166073 C92.02926387859432 157.2634869746795, 55.204990626679646 125.31029425845296, 16.18349132387622 91.8483653734664 M128.85669372751198 190.4884056090514 C84.45750557881536 150.80642909143842, 42.5888913854875 113.0789223642645, 16.7842985994993 91.41636697531142 M134.37128532361842 185.88886143539094 C89.84093623122374 150.2002260926336, 49.39655519757143 116.78419942718966, 18.867194517093495 87.36481324070093 M131.72727391180254 186.814001670964 C107.89829305899467 165.56342492637876, 83.31293138911894 143.43100721752856, 19.281993696975306 88.13602531560656 M135.57848705199194 185.2030998299692 C102.69246447984796 156.91647121291126, 74.12320835959767 131.83287533871095, 21.448320500838115 83.3767826533456 M134.5506220854504 185.13329990383724 C108.22887288845578 161.05181732033378, 83.1684899366589 139.7024820764388, 20.47947593434389 84.28071341054036 M136.97412719589283 180.62809414495763 C101.07122102801935 147.8961096609092, 64.08622115471744 118.16200020515096, 23.682484509485082 83.18725212702543 M138.6626245864909 182.08563570384916 C102.03021499263392 151.91459105607447, 66.68756036583905 120.47497614789927, 24.789953319417553 81.81417637730033 M142.6310305699188 177.56038192497175 C104.46964643192683 143.41794317195547, 64.31805494623269 112.50696943362635, 27.853448857632163 80.35682170635593 M140.9499490029592 178.0720632171778 C117.8989350958876 159.61575070258968, 94.04320000228216 137.77169817848548, 28.057124690231564 79.99293711206448 M142.13133074799936 175.0298861276555 C122.9240966775481 155.0802172718339, 97.67026291822283 133.26306687070752, 31.504284619208818 76.32947684898107 M143.7109154322223 175.16217825302957 C106.16460616092917 143.0977774756571, 68.73264422508238 109.4493595879986, 30.661341394152885 76.6170601740393 M146.84472754473228 173.88626929762438 C108.35185362823631 137.26515011574816, 69.14152754500564 103.08571687313633, 31.715629108812813 72.61894259951639 M147.3087539623155 172.9054724575825 C114.3331991228578 146.05505971796845, 81.9908667926027 116.40079509540372, 32.17286476921678 73.8415059594028 M150.65964869449252 170.42469745050343 C115.81352719782893 140.83806383939478, 81.48839591952897 112.23972162609209, 34.59155714104193 73.09050650257734 M149.27776635105127 169.58209719802412 C114.20028052272102 138.28420989452013, 78.01798265622274 108.65725218778238, 35.21273740345853 72.08295361433295 M151.24266901187787 165.94795813090812 C109.92678539843442 133.55570641373095, 68.74044974236817 94.27771689753682, 36.74545228982561 70.24284151580797 M151.95774518646488 167.38998162053238 C123.61838348669838 142.5070711703272, 95.95579935278276 117.49192356815442, 39.31365439424508 67.9266239480363 M154.7696720708178 164.39222429648248 C111.46455144473633 127.74453243162986, 68.39978631832014 89.33342401892381, 41.57826436976164 65.39436018382374 M155.6001355659233 163.69559653431384 C119.97398954449707 132.14507837947895, 83.97335693083632 101.22608668905646, 41.573220829611714 65.9376336066908 M156.2041076859101 160.513408491842 C117.50414393152346 124.24021430238687, 77.51653414448573 89.40851507775128, 44.00967111522501 62.30897852224967 M157.02129257746182 160.84530858554646 C123.09003408574775 131.96106628515113, 86.40990396452992 102.31575628247043, 43.76011346737092 61.911758957483976 M160.7828631717525 158.16898576160222 C129.70537422693278 129.82377094237174, 95.47087643786693 99.37110614560487, 47.73749734081349 60.75823407570125 M161.4633525591157 158.0722031704083 C116.29131630787634 122.0102442099564, 72.27238507628333 82.31173863001858, 47.94849989555797 60.062554146593826 M165.50213460227445 156.59981656340705 C121.34237986245569 118.95386810301514, 78.56089864111561 81.43922485759195, 49.968876620456555 58.1470498018225 M164.45510435825184 155.40290734810577 C132.55781986449233 126.8041231176215, 99.74689710214938 97.30926097897793, 49.62420021153984 56.27211498322685 M167.39568429207378 154.61650094187203 C124.7700971862013 115.73781472279347, 82.42123471130931 79.35244337364684, 53.69850876875196 53.70008824522889 M166.4652468129056 153.4689440148169 C140.49880519158637 129.43203932558907, 111.63614913704343 106.24289329453498, 52.337944503351785 53.90243311356104 M168.26600247552543 148.22514241262218 C134.64338695481743 119.23519238596157, 95.68151520453192 87.20733340662083, 57.194531100297475 50.74357445053596 M170.00855043088941 150.75749578772923 C144.08195329414238 127.35182888643284, 117.85711778334354 105.31965934205974, 55.56624410902908 51.70221893377442 M171.94372646722718 148.189466020273 C147.4859913494716 123.23217401070482, 119.70041531434606 98.76103110314334, 59.484389689022564 46.98711887538767 M173.28027655023857 146.79852306302072 C133.14229439406301 112.26799911826961, 90.91463229399758 76.74858137578092, 58.57226287593868 47.71372450307346 M177.01880234110854 145.65658222246844 C149.57853767874238 122.33971773654923, 125.43439217714541 102.38196964498192, 60.633096849525 46.710071564399534 M175.26233901832006 145.41552789989788 C151.88657434933396 124.82565800755286, 127.95774167660804 103.63381480119855, 61.05907464211586 45.08409771763616 M177.11874241176722 140.34334106382406 C137.4224822569304 104.95732526248173, 94.0718664826639 66.6844760387735, 62.47439281617978 42.38728603319656 M178.3765616731691 142.5369081945387 C147.54335302139393 115.08082333329361, 117.55792375031149 89.47044417207178, 64.27582491537311 43.316146194650045 M182.394496493801 138.81815508895536 C145.63360857645807 107.51976659304677, 109.08151824945368 74.021557537026, 65.87016490358468 40.25123732639424 M180.345549602821 140.10278059312125 C146.8163187599419 111.29881451909795, 114.80014773711173 83.44602077171214, 66.65215003374573 39.4554553302931 M185.0063231611394 136.7828222555063 C142.05889050835304 101.75480453233709, 100.91073496281871 67.41733364869278, 71.44160918566914 37.91778590163658 M184.05356040464272 135.97180340485193 C148.7629990218971 106.6284500862094, 115.4498727614646 77.1359635240931, 68.90433884460063 37.341152183771825 M187.4020472283801 131.25888010809237 C159.4700390641053 110.93080785933665, 134.00801994036772 84.45423395037584, 71.84748797703095 32.572531803539064 M186.1997616666695 133.73253077590877 C141.70924595844957 95.49758208055451, 99.0842770927272 57.950387513628456, 72.68859018597313 33.41725965126422 M187.04822142989815 130.2133696623386 C159.16374639732982 103.8801877149854, 131.03757538736772 78.99320967860433, 76.51529151204511 30.596578547726715 M188.40439264671386 129.9541765734793 C163.07222433853545 106.18957063039612, 133.92421904675868 82.57485531107181, 75.7071745656757 31.983460349957788 M193.68954558029134 126.12095346286051 C145.97712866948223 87.87991758144233, 101.6391482207001 48.067872993931516, 76.90065710530936 29.128651178815023 M192.8431834328111 127.37373244374149 C168.48398114618146 107.17824033979139, 145.42117430229692 87.4787314066277, 79.3428533217436 28.382214676030532 M194.08002825348908 125.58967946730206 C149.73690627046807 85.73988304671677, 102.45269595679936 47.73453532834627, 79.21853083075321 25.690860154447982 M195.3535166223281 124.14673169590185 C166.04722666950917 101.42252580505782, 137.8986779362716 77.51305252120369, 81.76504030154383 26.249524688688943 M196.26124426408916 121.54733522027878 C159.8976936057449 90.89598210357316, 125.95547419790165 59.48804824041841, 84.7214250029744 22.375055519241098 M198.0876848033002 121.6586034761384 C162.74221999246183 92.48538921846055, 128.79926560274646 61.64179127629064, 84.58305934311164 23.326288284111026 M198.2934963464666 118.86721173741564 C178.7058180443439 100.25048613069148, 153.93781517596355 81.6219631998211, 87.1852894365707 20.124649817809882 M200.6190522335399 117.7754366516386 C163.11665910016802 85.09872874961314, 127.0420082193217 54.95642589305205, 86.7070155344823 19.365122108474793 M205.51523431521915 115.93022156332816 C177.58401402871357 93.63664009912348, 152.91100179154614 70.9811133532796, 90.39538270547158 17.016441007798313 M203.5764740010824 116.03109786858047 C178.9177674484973 94.07571108808652, 152.86346162751667 71.76983464980776, 90.20866647302276 18.037184470986723 M207.27421674427626 114.25066265566034 C163.6725818172892 73.51421341070424, 122.32852350029239 38.366266992338964, 92.42452962427478 12.446966633821894 M205.75045770329473 112.87799543617052 C172.44590482254438 85.2142750944767, 141.44263562215662 56.24564460398426, 92.97467974676829 14.743529517824818 M209.20576844823574 110.66257255902767 C186.09167122110392 87.17096397307478, 160.69592220847238 67.98881419113134, 94.36428292735535 12.758267711505638 M208.74642092821216 109.49843350058674 C171.12749893349428 77.27343152624978, 131.63605468813154 42.75127443254287, 95.81279461353141 11.865871116176592 M210.71865174169534 107.60155131804567 C179.30657175265702 80.73105999858711, 144.72603924564876 48.2107228072427, 97.58434242931102 8.800006785465037 M212.84556251386994 107.71143495800715 C171.64033114745507 72.90764340750758, 128.3665213355601 35.64842769476991, 98.08624116134737 7.953700912220036 M214.48093769858448 103.38658439035831 C191.16111903696347 82.34482382301067, 163.7181853872206 59.493652768778034, 100.46371670407126 5.555231813344093 M214.865733807635 105.87956436763821 C185.54687155826255 78.98498415579895, 156.23006457962367 52.45119515135185, 100.81990198758314 4.975052215161654 M178.69865588169404 65.63526828408425 C160.45308917840524 51.66047832684663, 142.62984590756622 36.17695967526579, 102.66898056623386 2.3267303397583063 M176.8150883957357 67.94915358916109 C160.41703810743712 53.672083508399226, 145.48672169093928 38.37123869001559, 103.35356968027399 2.127854171179443 M142.60048885742876 29.859019080335827 C127.88564912581305 20.93866648030648, 116.97891055728418 10.138072835024381, 106.64014633039656 -0.9811475906768266 M141.7517766180143 29.670510305250616 C127.4801767093112 17.83122099265759, 114.2119443570509 7.966204835926419, 107.20281807745519 -0.2532453235485974"
      stroke="#00aec7" stroke-width="0.5" fill="none"></path>
    <path
      d="M105.42777743190527 -0.7555845007300377 C132.45083498383988 27.358664128926467, 160.66248772042104 54.16373151279695, 212.57646837085485 106.09535453468561 M106.91549490764737 0.8546870462596416 C139.30546837697622 30.529844225061247, 170.08922506639502 62.9503656933579, 212.35861502960324 106.09671897813678 M210.6893166527152 107.39476821571589 C184.48431408075209 133.87227899914083, 154.82011593806035 163.74383264110017, 106.08449044078588 212.07869217544794 M212.7192898876965 106.2327939979732 C186.1937977654993 132.3479823830683, 160.78662614705564 159.00251995305007, 106.93229602649808 212.5021200887859 M107.23450913280249 212.63097450882196 C69.70474430040747 179.1089320462651, 35.47846655600995 144.37089277712394, -0.3779846206307411 105.30437753349543 M106.93991302326322 212.18217093870044 C82.90569985879293 188.0256178250641, 57.59259938334754 163.49633607691388, 0.6143334992229939 107.49234099313617 M1.2877201065421104 106.5372628942132 C29.650919049866502 76.6032030923292, 60.18940557789058 45.69614432919769, 108.56184592097998 -0.13554837554693222 M0.7640098221600056 106.51812548562884 C35.84220006223768 69.83221712652593, 74.18427546415478 32.04695591833442, 106.23590420559049 0.33190805837512016"
      stroke="#ffffff" stroke-width="1" fill="none"></path>
  </g>
  <g>
    <g transform="translate(769.6112952455878 283.00390625) rotate(0 -0.5705179926007986 -30.375804614275694)">
      <path
        d="M-1.0841531977057457 -1.159006454050541 C1.161924318789679 -22.341149865689367, -1.0494488777860536 -44.45675063764109, -1.7396915182471275 -59.12193355709314 M0.41606802865862846 0.01981138065457344 C0.4989736009927583 -20.18356953509603, 0.25078146454761735 -42.06813616716638, 0.5986555330455303 -60.77142060920596"
        stroke="#ffffff" stroke-width="1" fill="none"></path>
    </g>
    <g transform="translate(769.6112952455878 283.00390625) rotate(0 -0.5705179926007986 -30.375804614275694)">
      <path
        d="M9.466788177309025 -33.70385133269528 C8.322254216711382 -43.48167849179949, 2.4748315600768453 -54.12584157090701, -1.2152547352015972 -60.033979166299105 M10.9670094036734 -32.525033497990165 C7.439304293246127 -41.57014921222543, 3.663842707947534 -52.32647016093236, 1.1230923160910606 -61.68346621841192"
        stroke="#ffffff" stroke-width="1" fill="none"></path>
    </g>
    <g transform="translate(769.6112952455878 283.00390625) rotate(0 -0.5705179926007986 -30.375804614275694)">
      <path
        d="M-11.005297542571528 -33.91040954930647 C-4.724154407397155 -43.47628131038078, -3.1475026475425993 -54.04553733837285, -1.2152547352015972 -60.033979166299105 M-9.505076316207154 -32.73159171460136 C-5.831357904652775 -41.76533513683388, -2.4048517601523933 -52.44899003525586, 1.1230923160910606 -61.68346621841192"
        stroke="#ffffff" stroke-width="1" fill="none"></path>
    </g>
  </g>
  <g>
    <g transform="translate(53.763638995587826 283.19140625) rotate(0 -21.35048546642065 -0.04098216674549349)">
      <path
        d="M1.0626680627465248 0.05005683749914169 C-14.235897363691766 0.39574405240244237, -30.827152184733134 0.8713043389358791, -43.763638995587826 -0.5007685199379921"
        stroke="#ffffff" stroke-width="1.5" fill="none" stroke-dasharray="12 8"></path>
    </g>
  </g>
  <g>
    <g transform="translate(844.9316077455878 282.1953125) rotate(0 21.7982731834054 0.376042964778037)">
      <path
        d="M-0.6942396387457848 0.35839810222387314 C15.107984039042059 2.196061007983517, 31.014080442502895 -0.8759452548975242, 44.29078600555658 -0.0507570281624794"
        stroke="#ffffff" stroke-width="1.5" fill="none" stroke-dasharray="12 8"></path>
    </g>
  </g>
  <g transform="translate(60.818326495587826 81.28515625) rotate(0 59 34.5)"><text x="59" y="18"
      font-family="Inconsolata, Segoe UI Emoji" font-size="20px" fill="#ffffff" text-anchor="middle"
      style="white-space: pre;" direction="ltr">Falco created</text><text x="59" y="41"
      font-family="Inconsolata, Segoe UI Emoji" font-size="20px" fill="#ffffff" text-anchor="middle"
      style="white-space: pre;" direction="ltr">to parse</text><text x="59" y="64"
      font-family="Inconsolata, Segoe UI Emoji" font-size="20px" fill="#ffffff" text-anchor="middle"
      style="white-space: pre;" direction="ltr">libsinsp events</text></g>
  <g transform="translate(375.7519202455878 81.36328125) rotate(0 71 34.5)"><text x="71" y="18"
      font-family="Inconsolata, Segoe UI Emoji" font-size="20px" fill="#ffffff" text-anchor="middle"
      style="white-space: pre;" direction="ltr">Falco</text><text x="71" y="41"
      font-family="Inconsolata, Segoe UI Emoji" font-size="20px" fill="#ffffff" text-anchor="middle"
      style="white-space: pre;" direction="ltr">Community Calls</text><text x="71" y="64"
      font-family="Inconsolata, Segoe UI Emoji" font-size="20px" fill="#ffffff" text-anchor="middle"
      style="white-space: pre;" direction="ltr">start</text></g>
  <g transform="translate(227.57223274558783 413.14453125) rotate(0 56.5 34.5)"><text x="56.5" y="18"
      font-family="Inconsolata, Segoe UI Emoji" font-size="20px" fill="#ffffff" text-anchor="middle"
      style="white-space: pre;" direction="ltr">Sysdig, Inc.</text><text x="56.5" y="41"
      font-family="Inconsolata, Segoe UI Emoji" font-size="20px" fill="#ffffff" text-anchor="middle"
      style="white-space: pre;" direction="ltr">donated Falco</text><text x="56.5" y="64"
      font-family="Inconsolata, Segoe UI Emoji" font-size="20px" fill="#ffffff" text-anchor="middle"
      style="white-space: pre;" direction="ltr">to the CNCF</text></g>
  <g transform="translate(553.8534827455878 406.296875) rotate(0 56.5 34.5)"><text x="56.5" y="18"
      font-family="Inconsolata, Segoe UI Emoji" font-size="20px" fill="#ffffff" text-anchor="middle"
      style="white-space: pre;" direction="ltr">Falco became</text><text x="56.5" y="41"
      font-family="Inconsolata, Segoe UI Emoji" font-size="20px" fill="#ffffff" text-anchor="middle"
      style="white-space: pre;" direction="ltr">an incubated</text><text x="56.5" y="64"
      font-family="Inconsolata, Segoe UI Emoji" font-size="20px" fill="#ffffff" text-anchor="middle"
      style="white-space: pre;" direction="ltr">CNCF project</text></g>
</svg>